# xmcd
#
# Track frame offsets:
# 150
# 12702
# 23537
# 34235
# 46277
# 60270
# 69357
# 79330
# 88690
# 97665
# 112005
# 120767
# 133492
# 148490
#
# Disc length: 2183 seconds
#
#
# Revision: 0
# Processed by: cddbd v1.5.1PL0 Copyright (c) Steve Scherf et al.
# Submitted via: FreeRIP 2.52 
#
DISCID=ba08850e
DTITLE=Tex Ritter - The Very Best of Tex Ritter
DYEAR=2000
DGENRE=Country
TTITLE0=High Noon
TTITLE1=Green Grow the Lilacs
TTITLE2=Have I Stayed Away Too Long
TTITLE3=The Gallows Pole
TTITLE4=The Fool's Raradise
TTITLE5=Cimarron
TTITLE6=The Boll Weevil
TTITLE7=Froggy Went A-Courtin
TTITLE8=Chielito Lindo
TTITLE9=Conversation with a Gun
TTITLE10=The Keeper of the Keys
TTITLE11=Son of a Saginaw Fisherman
TTITLE12=Hill-Billy Heaven
TTITLE13=These Hands
EXTD=
EXTT0=
EXTT1=
EXTT2=
EXTT3=
EXTT4=
EXTT5=
EXTT6=
EXTT7=
EXTT8=
EXTT9=
EXTT10=
EXTT11=
EXTT12=
EXTT13=
PLAYORDER=
